<svg xmlns="http://www.w3.org/2000/svg" width="400" height="280" viewBox="0 0 400 280" role="img" aria-label="The Saboteur"><title>The Saboteur · nightwalker</title><rect width="400" height="280" fill="#0a151e"/><g transform="translate(-18 0) scale(1.4)"><rect width="320" height="200" fill="#292337" opacity=".8"/><path d="M104 0h95l-90 200H0Z" fill="#b09ad8" opacity=".06"/><g stroke="#b09ad8" stroke-width="2" fill="none" opacity=".23"><path d="M0 166 47 75l27 91m173 0 25-106 37 106M33 49h26m207-19h32M0 177h320"/><path d="M0 45h73m181 67h66M14 35v22m288 29v39"/></g><path d="M0 186 90 159h133l97 27v14H0Z" fill="#071018" opacity=".7"/><g transform="rotate(-1 160 155)"><path d="M112 106 139 94h42l48 28 14 78H94Z" fill="#14202c" stroke="#080f15" stroke-width="5"/><path d="m138 100 22 12 23-12 16 76-39 15-38-15Z" fill="#b09ad8" opacity=".28"/><path d="m143 108 17 13 16-13m-43 47 27 10 29-10M160 122v33" fill="none" stroke="#dbd2ec" stroke-width="2" opacity=".55"/><path d="m112 109 -22 25 10 55 26-4 -4-61Zm96 2 24 20-8 52-25-1 2-61Z" fill="#192b35" stroke="#071019" stroke-width="4"/><path d="M138 47q22-20 43 0l-3 43-19 14-18-13Z" fill="#334653" stroke="#0a1218" stroke-width="4"/><path d="M134 40q28-23 53 3l-4 14-44-3Z" fill="#273b43" stroke="#0c1820" stroke-width="4"/><path d="M138 49h45v17h-45Z" fill="#0d222c" stroke="#b09ad8" stroke-width="3"/><circle cx="148" cy="57" r="6" fill="#dbd2ec" opacity=".8"/><circle cx="171" cy="57" r="6" fill="#b09ad8"/><path d="m145 75 31 0 7 17-20 8-22-9Z" fill="#26343c"/><path d="m191 143 41-17 32 34-41 23Z" fill="#223944" stroke="#b09ad8" stroke-width="3"/><path d="m204 146 20-8 22 20-21 12Z" fill="#0c1c27"/><path d="m208 150 20-2m-13 11 18-2" stroke="#dbd2ec" stroke-width="2"/><path d="M97 130v53m-9-57 9 10 12-10" fill="none" stroke="#dbd2ec" stroke-width="7"/><path d="m118 109 11 4m-9 2 11 4m56-10 12-5m-11 11 13-5" stroke="#dbd2ec" stroke-width="4"/><path d="M0 199h320" stroke="#b09ad8" stroke-width="2"/></g></g><path d="M12 48V12h52M336 12h52v36M12 232v36h52m272 0h52v-36" stroke="#b09ad8" stroke-width="2" fill="none"/><path d="M20 255h106m148 0h106" stroke="#dbd2ec" stroke-width="1"/><path d="m184 253 16-12 16 12-16 12Z" fill="#b09ad8"/><path d="M20 25h46m-46 7h28" stroke="#b09ad8" opacity=".6"/></svg>