<svg xmlns="http://www.w3.org/2000/svg" viewBox="0 0 1400 600"><title>Frontlines tactical terrain</title><rect width="1400" height="600" fill="#10191d"/><defs><pattern id="grid" width="25" height="25" patternUnits="userSpaceOnUse"><path d="M25 0H0v25" fill="none" stroke="#597681" stroke-width=".3" opacity=".18"/></pattern></defs><rect width="1400" height="600" fill="url(#grid)"/><g fill="#24383d" stroke="#71949e" stroke-width=".8" opacity=".6"><rect x="10" y="20" width="28" height="20" rx="1"/><path d="M13 23h22v14" fill="none" opacity=".3"/><rect x="17" y="98" width="31" height="25" rx="1"/><path d="M20 101h25v19" fill="none" opacity=".3"/><rect x="10" y="176" width="34" height="30" rx="1"/><path d="M13 179h28v24" fill="none" opacity=".3"/><rect x="17" y="254" width="37" height="35" rx="1"/><path d="M20 257h31v29" fill="none" opacity=".3"/><rect x="10" y="332" width="40" height="40" rx="1"/><path d="M13 335h34v34" fill="none" opacity=".3"/><rect x="17" y="410" width="43" height="45" rx="1"/><path d="M20 413h37v39" fill="none" opacity=".3"/><rect x="10" y="488" width="46" height="50" rx="1"/><path d="M13 491h40v44" fill="none" opacity=".3"/><rect x="79" y="20" width="35" height="31" rx="1"/><path d="M82 23h29v25" fill="none" opacity=".3"/><rect x="86" y="98" width="38" height="36" rx="1"/><path d="M89 101h32v30" fill="none" opacity=".3"/><rect x="79" y="176" width="41" height="41" rx="1"/><path d="M82 179h35v35" fill="none" opacity=".3"/><rect x="86" y="254" width="44" height="46" rx="1"/><path d="M89 257h38v40" fill="none" opacity=".3"/><rect x="79" y="332" width="47" height="20" rx="1"/><path d="M82 335h41v14" fill="none" opacity=".3"/><rect x="86" y="410" width="50" height="25" rx="1"/><path d="M89 413h44v19" fill="none" opacity=".3"/><rect x="79" y="488" width="53" height="30" rx="1"/><path d="M82 491h47v24" fill="none" opacity=".3"/><rect x="148" y="20" width="42" height="42" rx="1"/><path d="M151 23h36v36" fill="none" opacity=".3"/><rect x="155" y="98" width="45" height="47" rx="1"/><path d="M158 101h39v41" fill="none" opacity=".3"/><rect x="148" y="176" width="48" height="21" rx="1"/><path d="M151 179h42v15" fill="none" opacity=".3"/><rect x="155" y="254" width="51" height="26" rx="1"/><path d="M158 257h45v20" fill="none" opacity=".3"/><rect x="148" y="332" width="54" height="31" rx="1"/><path d="M151 335h48v25" fill="none" opacity=".3"/><rect x="155" y="410" width="30" height="36" rx="1"/><path d="M158 413h24v30" fill="none" opacity=".3"/><rect x="148" y="488" width="33" height="41" rx="1"/><path d="M151 491h27v35" fill="none" opacity=".3"/><rect x="217" y="20" width="49" height="22" rx="1"/><path d="M220 23h43v16" fill="none" opacity=".3"/><rect x="224" y="98" width="52" height="27" rx="1"/><path d="M227 101h46v21" fill="none" opacity=".3"/><rect x="217" y="176" width="28" height="32" rx="1"/><path d="M220 179h22v26" fill="none" opacity=".3"/><rect x="224" y="254" width="31" height="37" rx="1"/><path d="M227 257h25v31" fill="none" opacity=".3"/><rect x="217" y="332" width="34" height="42" rx="1"/><path d="M220 335h28v36" fill="none" opacity=".3"/><rect x="224" y="410" width="37" height="47" rx="1"/><path d="M227 413h31v41" fill="none" opacity=".3"/><rect x="217" y="488" width="40" height="21" rx="1"/><path d="M220 491h34v15" fill="none" opacity=".3"/><rect x="286" y="20" width="29" height="33" rx="1"/><path d="M289 23h23v27" fill="none" opacity=".3"/><rect x="293" y="98" width="32" height="38" rx="1"/><path d="M296 101h26v32" fill="none" opacity=".3"/><rect x="286" y="176" width="35" height="43" rx="1"/><path d="M289 179h29v37" fill="none" opacity=".3"/><rect x="293" y="254" width="38" height="48" rx="1"/><path d="M296 257h32v42" fill="none" opacity=".3"/><rect x="286" y="332" width="41" height="22" rx="1"/><path d="M289 335h35v16" fill="none" opacity=".3"/><rect x="293" y="410" width="44" height="27" rx="1"/><path d="M296 413h38v21" fill="none" opacity=".3"/><rect x="286" y="488" width="47" height="32" rx="1"/><path d="M289 491h41v26" fill="none" opacity=".3"/><rect x="355" y="20" width="36" height="44" rx="1"/><path d="M358 23h30v38" fill="none" opacity=".3"/><rect x="362" y="98" width="39" height="49" rx="1"/><path d="M365 101h33v43" fill="none" opacity=".3"/><rect x="355" y="176" width="42" height="23" rx="1"/><path d="M358 179h36v17" fill="none" opacity=".3"/><rect x="362" y="254" width="45" height="28" rx="1"/><path d="M365 257h39v22" fill="none" opacity=".3"/><rect x="355" y="332" width="48" height="33" rx="1"/><path d="M358 335h42v27" fill="none" opacity=".3"/><rect x="362" y="410" width="51" height="38" rx="1"/><path d="M365 413h45v32" fill="none" opacity=".3"/><rect x="355" y="488" width="54" height="43" rx="1"/><path d="M358 491h48v37" fill="none" opacity=".3"/><rect x="424" y="20" width="43" height="24" rx="1"/><path d="M427 23h37v18" fill="none" opacity=".3"/><rect x="431" y="98" width="46" height="29" rx="1"/><path d="M434 101h40v23" fill="none" opacity=".3"/><rect x="424" y="176" width="49" height="34" rx="1"/><path d="M427 179h43v28" fill="none" opacity=".3"/><rect x="431" y="254" width="52" height="39" rx="1"/><path d="M434 257h46v33" fill="none" opacity=".3"/><rect x="424" y="332" width="28" height="44" rx="1"/><path d="M427 335h22v38" fill="none" opacity=".3"/><rect x="431" y="410" width="31" height="49" rx="1"/><path d="M434 413h25v43" fill="none" opacity=".3"/><rect x="424" y="488" width="34" height="23" rx="1"/><path d="M427 491h28v17" fill="none" opacity=".3"/><rect x="493" y="20" width="50" height="35" rx="1"/><path d="M496 23h44v29" fill="none" opacity=".3"/><rect x="500" y="98" width="53" height="40" rx="1"/><path d="M503 101h47v34" fill="none" opacity=".3"/><rect x="493" y="176" width="29" height="45" rx="1"/><path d="M496 179h23v39" fill="none" opacity=".3"/><rect x="500" y="254" width="32" height="50" rx="1"/><path d="M503 257h26v44" fill="none" opacity=".3"/><rect x="493" y="332" width="35" height="24" rx="1"/><path d="M496 335h29v18" fill="none" opacity=".3"/><rect x="500" y="410" width="38" height="29" rx="1"/><path d="M503 413h32v23" fill="none" opacity=".3"/><rect x="493" y="488" width="41" height="34" rx="1"/><path d="M496 491h35v28" fill="none" opacity=".3"/><rect x="562" y="20" width="30" height="46" rx="1"/><path d="M565 23h24v40" fill="none" opacity=".3"/><rect x="569" y="98" width="33" height="20" rx="1"/><path d="M572 101h27v14" fill="none" opacity=".3"/><rect x="562" y="176" width="36" height="25" rx="1"/><path d="M565 179h30v19" fill="none" opacity=".3"/><rect x="569" y="254" width="39" height="30" rx="1"/><path d="M572 257h33v24" fill="none" opacity=".3"/><rect x="562" y="332" width="42" height="35" rx="1"/><path d="M565 335h36v29" fill="none" opacity=".3"/><rect x="569" y="410" width="45" height="40" rx="1"/><path d="M572 413h39v34" fill="none" opacity=".3"/><rect x="562" y="488" width="48" height="45" rx="1"/><path d="M565 491h42v39" fill="none" opacity=".3"/><rect x="631" y="20" width="37" height="26" rx="1"/><path d="M634 23h31v20" fill="none" opacity=".3"/><rect x="638" y="98" width="40" height="31" rx="1"/><path d="M641 101h34v25" fill="none" opacity=".3"/><rect x="631" y="176" width="43" height="36" rx="1"/><path d="M634 179h37v30" fill="none" opacity=".3"/><rect x="638" y="254" width="46" height="41" rx="1"/><path d="M641 257h40v35" fill="none" opacity=".3"/><rect x="631" y="332" width="49" height="46" rx="1"/><path d="M634 335h43v40" fill="none" opacity=".3"/><rect x="638" y="410" width="52" height="20" rx="1"/><path d="M641 413h46v14" fill="none" opacity=".3"/><rect x="631" y="488" width="28" height="25" rx="1"/><path d="M634 491h22v19" fill="none" opacity=".3"/><rect x="769" y="20" width="51" height="48" rx="1"/><path d="M772 23h45v42" fill="none" opacity=".3"/><rect x="776" y="98" width="54" height="22" rx="1"/><path d="M779 101h48v16" fill="none" opacity=".3"/><rect x="769" y="176" width="30" height="27" rx="1"/><path d="M772 179h24v21" fill="none" opacity=".3"/><rect x="776" y="254" width="33" height="32" rx="1"/><path d="M779 257h27v26" fill="none" opacity=".3"/><rect x="769" y="332" width="36" height="37" rx="1"/><path d="M772 335h30v31" fill="none" opacity=".3"/><rect x="776" y="410" width="39" height="42" rx="1"/><path d="M779 413h33v36" fill="none" opacity=".3"/><rect x="769" y="488" width="42" height="47" rx="1"/><path d="M772 491h36v41" fill="none" opacity=".3"/><rect x="838" y="20" width="31" height="28" rx="1"/><path d="M841 23h25v22" fill="none" opacity=".3"/><rect x="845" y="98" width="34" height="33" rx="1"/><path d="M848 101h28v27" fill="none" opacity=".3"/><rect x="838" y="176" width="37" height="38" rx="1"/><path d="M841 179h31v32" fill="none" opacity=".3"/><rect x="845" y="254" width="40" height="43" rx="1"/><path d="M848 257h34v37" fill="none" opacity=".3"/><rect x="838" y="332" width="43" height="48" rx="1"/><path d="M841 335h37v42" fill="none" opacity=".3"/><rect x="845" y="410" width="46" height="22" rx="1"/><path d="M848 413h40v16" fill="none" opacity=".3"/><rect x="838" y="488" width="49" height="27" rx="1"/><path d="M841 491h43v21" fill="none" opacity=".3"/><rect x="907" y="20" width="38" height="39" rx="1"/><path d="M910 23h32v33" fill="none" opacity=".3"/><rect x="914" y="98" width="41" height="44" rx="1"/><path d="M917 101h35v38" fill="none" opacity=".3"/><rect x="907" y="176" width="44" height="49" rx="1"/><path d="M910 179h38v43" fill="none" opacity=".3"/><rect x="914" y="254" width="47" height="23" rx="1"/><path d="M917 257h41v17" fill="none" opacity=".3"/><rect x="907" y="332" width="50" height="28" rx="1"/><path d="M910 335h44v22" fill="none" opacity=".3"/><rect x="914" y="410" width="53" height="33" rx="1"/><path d="M917 413h47v27" fill="none" opacity=".3"/><rect x="907" y="488" width="29" height="38" rx="1"/><path d="M910 491h23v32" fill="none" opacity=".3"/><rect x="976" y="20" width="45" height="50" rx="1"/><path d="M979 23h39v44" fill="none" opacity=".3"/><rect x="983" y="98" width="48" height="24" rx="1"/><path d="M986 101h42v18" fill="none" opacity=".3"/><rect x="976" y="176" width="51" height="29" rx="1"/><path d="M979 179h45v23" fill="none" opacity=".3"/><rect x="983" y="254" width="54" height="34" rx="1"/><path d="M986 257h48v28" fill="none" opacity=".3"/><rect x="976" y="332" width="30" height="39" rx="1"/><path d="M979 335h24v33" fill="none" opacity=".3"/><rect x="983" y="410" width="33" height="44" rx="1"/><path d="M986 413h27v38" fill="none" opacity=".3"/><rect x="976" y="488" width="36" height="49" rx="1"/><path d="M979 491h30v43" fill="none" opacity=".3"/><rect x="1045" y="20" width="52" height="30" rx="1"/><path d="M1048 23h46v24" fill="none" opacity=".3"/><rect x="1052" y="98" width="28" height="35" rx="1"/><path d="M1055 101h22v29" fill="none" opacity=".3"/><rect x="1045" y="176" width="31" height="40" rx="1"/><path d="M1048 179h25v34" fill="none" opacity=".3"/><rect x="1052" y="254" width="34" height="45" rx="1"/><path d="M1055 257h28v39" fill="none" opacity=".3"/><rect x="1045" y="332" width="37" height="50" rx="1"/><path d="M1048 335h31v44" fill="none" opacity=".3"/><rect x="1052" y="410" width="40" height="24" rx="1"/><path d="M1055 413h34v18" fill="none" opacity=".3"/><rect x="1045" y="488" width="43" height="29" rx="1"/><path d="M1048 491h37v23" fill="none" opacity=".3"/><rect x="1114" y="20" width="32" height="41" rx="1"/><path d="M1117 23h26v35" fill="none" opacity=".3"/><rect x="1121" y="98" width="35" height="46" rx="1"/><path d="M1124 101h29v40" fill="none" opacity=".3"/><rect x="1114" y="176" width="38" height="20" rx="1"/><path d="M1117 179h32v14" fill="none" opacity=".3"/><rect x="1121" y="254" width="41" height="25" rx="1"/><path d="M1124 257h35v19" fill="none" opacity=".3"/><rect x="1114" y="332" width="44" height="30" rx="1"/><path d="M1117 335h38v24" fill="none" opacity=".3"/><rect x="1121" y="410" width="47" height="35" rx="1"/><path d="M1124 413h41v29" fill="none" opacity=".3"/><rect x="1114" y="488" width="50" height="40" rx="1"/><path d="M1117 491h44v34" fill="none" opacity=".3"/><rect x="1183" y="20" width="39" height="21" rx="1"/><path d="M1186 23h33v15" fill="none" opacity=".3"/><rect x="1190" y="98" width="42" height="26" rx="1"/><path d="M1193 101h36v20" fill="none" opacity=".3"/><rect x="1183" y="176" width="45" height="31" rx="1"/><path d="M1186 179h39v25" fill="none" opacity=".3"/><rect x="1190" y="254" width="48" height="36" rx="1"/><path d="M1193 257h42v30" fill="none" opacity=".3"/><rect x="1183" y="332" width="51" height="41" rx="1"/><path d="M1186 335h45v35" fill="none" opacity=".3"/><rect x="1190" y="410" width="54" height="46" rx="1"/><path d="M1193 413h48v40" fill="none" opacity=".3"/><rect x="1183" y="488" width="30" height="20" rx="1"/><path d="M1186 491h24v14" fill="none" opacity=".3"/><rect x="1252" y="20" width="46" height="32" rx="1"/><path d="M1255 23h40v26" fill="none" opacity=".3"/><rect x="1259" y="98" width="49" height="37" rx="1"/><path d="M1262 101h43v31" fill="none" opacity=".3"/><rect x="1252" y="176" width="52" height="42" rx="1"/><path d="M1255 179h46v36" fill="none" opacity=".3"/><rect x="1259" y="254" width="28" height="47" rx="1"/><path d="M1262 257h22v41" fill="none" opacity=".3"/><rect x="1252" y="332" width="31" height="21" rx="1"/><path d="M1255 335h25v15" fill="none" opacity=".3"/><rect x="1259" y="410" width="34" height="26" rx="1"/><path d="M1262 413h28v20" fill="none" opacity=".3"/><rect x="1252" y="488" width="37" height="31" rx="1"/><path d="M1255 491h31v25" fill="none" opacity=".3"/><rect x="1321" y="20" width="53" height="43" rx="1"/><path d="M1324 23h47v37" fill="none" opacity=".3"/><rect x="1328" y="98" width="29" height="48" rx="1"/><path d="M1331 101h23v42" fill="none" opacity=".3"/><rect x="1321" y="176" width="32" height="22" rx="1"/><path d="M1324 179h26v16" fill="none" opacity=".3"/><rect x="1328" y="254" width="35" height="27" rx="1"/><path d="M1331 257h29v21" fill="none" opacity=".3"/><rect x="1321" y="332" width="38" height="32" rx="1"/><path d="M1324 335h32v26" fill="none" opacity=".3"/><rect x="1328" y="410" width="41" height="37" rx="1"/><path d="M1331 413h35v31" fill="none" opacity=".3"/><rect x="1321" y="488" width="44" height="42" rx="1"/><path d="M1324 491h38v36" fill="none" opacity=".3"/></g><g fill="none" stroke="#799da7" opacity=".27"><path d="M0 130H1400" stroke-width="5"/><path d="M0 130H1400" stroke="#10191d" stroke-width="3"/><path d="M0 460H1400" stroke-width="5"/><path d="M0 460H1400" stroke="#10191d" stroke-width="3"/><path d="M120 0v600" stroke-width="5"/><path d="M120 0v600" stroke="#10191d" stroke-width="3"/><path d="M400 0v600" stroke-width="5"/><path d="M400 0v600" stroke="#10191d" stroke-width="3"/><path d="M720 0v600" stroke-width="5"/><path d="M720 0v600" stroke="#10191d" stroke-width="3"/><path d="M1020 0v600" stroke-width="5"/><path d="M1020 0v600" stroke="#10191d" stroke-width="3"/><path d="M1290 0v600" stroke-width="5"/><path d="M1290 0v600" stroke="#10191d" stroke-width="3"/><path d="M0 580 1400 40" stroke-width="5"/><path d="M0 580 1400 40" stroke="#10191d" stroke-width="3"/><path d="M0 560 1400 20" stroke-width="5"/><path d="M0 560 1400 20" stroke="#10191d" stroke-width="3"/><path d="M0 300h530l120-90h750" stroke-width="5"/><path d="M0 300h530l120-90h750" stroke="#10191d" stroke-width="3"/></g><g stroke="#86a4ae" opacity=".25"><path d="M208 178h130M213 183h120"/><path d="M208 202h130M213 207h120"/><path d="M208 226h130M213 231h120"/><path d="M208 250h130M213 255h120"/><path d="M208 274h130M213 279h120"/><path d="M208 298h130M213 303h120"/><path d="M208 322h130M213 327h120"/><path d="M208 346h130M213 351h120"/><path d="M208 370h130M213 375h120"/><path d="M208 394h130M213 399h120"/><path d="M208 418h130M213 423h120"/></g><g fill="none" stroke="#afc6ca" opacity=".26"><path d="M16 20h86v76H16Z"/><path d="M31 35h56v46H31Z"/><circle cx="820" cy="296" r="68"/><circle cx="820" cy="296" r="42"/><path d="M1045 184h180v180h-180Z"/><path d="M1059 198h151v152h-151Z"/><path d="M1320 72h61v138h-61Z"/></g><path d="M565 0c-75 105 45 203-15 307s-43 188-1 293" fill="none" stroke="#294a5a" stroke-width="30" opacity=".5"/><path d="M565 0c-75 105 45 203-15 307s-43 188-1 293" fill="none" stroke="#6d9bad" stroke-width="1" opacity=".35"/></svg>
