<svg xmlns="http://www.w3.org/2000/svg" width="400" height="400" viewBox="0 0 400 400" preserveAspectRatio="xMidYMid slice" role="img" aria-label="Contingency Plan tactical equipment study"><title>Contingency Plan</title><defs><linearGradient id="field" x2=".85" y2="1"><stop stop-color="#302a1c"/><stop offset="1" stop-color="#070e18"/></linearGradient><linearGradient id="armor" x2="1" y2="1"><stop stop-color="#3f5360"/><stop offset=".54" stop-color="#21333f"/><stop offset="1" stop-color="#101b28"/></linearGradient><radialGradient id="light"><stop stop-color="#d4b56a" stop-opacity=".28"/><stop offset="1" stop-color="#d4b56a" stop-opacity="0"/></radialGradient></defs><rect width="400" height="400" fill="url(#field)"/><circle cx="274" cy="149" r="180" fill="url(#light)"/><g fill="none" stroke="#d4b56a" stroke-width="2" opacity=".18"><path d="M18 245V111h69v134m226 0V75h67v170M37 136h32m-32 17h32m-32 17h32m263-70h29m-29 17h29m-29 17h29"/><path d="m102 110 20-12 20 12v24l-20 12-20-12Z"/></g><path d="M0 300 85 273h220l95 27v100H0Z" fill="#061019"/><path d="m0 0 150 0-95 400H0Z" fill="#d4b56a" opacity=".06"/><g transform="translate(40 55)" stroke="#e8dab0" stroke-width="8" stroke-linecap="square" stroke-linejoin="bevel" fill="none"><path d="M95 62 160 40l65 22v88l-65 63-65-63Z"/><path d="M160 70v99m-43-54h86"/></g><path d="M79 321h246m-220 13h193m-163 14h132" stroke="#d4b56a" stroke-width="3" opacity=".5"/><g stroke="#d4b56a" stroke-width="2" fill="none" opacity=".65"><path d="M20 55V20h52m256 0h52v35M20 345v35h52m256 0h52v-35"/><path d="M27 38h55m236 0h55M30 362h82m176 0h82"/></g><path d="m183 359 17-12 17 12-17 12Z" fill="#d4b56a"/><g stroke="#e8dab0" stroke-width="1" opacity=".2"><path d="M0 93h400M0 293h400M48 0v400M349 0v400"/></g></svg>